<svg width="200" height="200" viewBox="0 0 100 100" xmlns="http://www.w3.org/2000/svg">
  <title>Match Ticket — App Icon</title>
  <!-- Background -->
  <rect x="0" y="0" width="100" height="100" rx="22" fill="#060610"/>
  
  <defs>
    <linearGradient id="puzzleGradIcon" x1="0%" y1="100%" x2="100%" y2="0%">
      <stop offset="49.8%" stop-color="#ffffff"/>
      <stop offset="50.2%" stop-color="#CAFF00"/>
    </linearGradient>
  </defs>
  
  <g transform="translate(10, 10) scale(0.8)">
    <path
      d="M 25 25 L 43 25 C 42 22, 36 21, 36 15 C 36 8, 41 7, 50 7 C 59 7, 64 8, 64 15 C 64 21, 58 22, 57 25 L 75 25 L 75 43 C 72 42, 71 36, 65 36 C 57 36, 58 41, 58 50 C 58 59, 57 64, 65 64 C 71 64, 72 58, 75 57 L 75 75 L 57 75 C 58 72, 64 71, 64 65 C 64 57, 59 58, 50 58 C 41 58, 36 57, 36 65 C 36 71, 42 72, 43 75 L 25 75 L 25 57 C 22 58, 21 64, 15 64 C 7 64, 8 59, 8 50 C 8 41, 7 36, 15 36 C 21 36, 22 42, 25 43 Z"
      fill="url(#puzzleGradIcon)"
    />
    <circle cx="44.5" cy="31.1" r="3.6" fill="#000000" />
    <path
      d="M 37.8,37.5 C 36.6,38.8 35.8,40.7 35.7,42.7 C 35.5,45.3 36.6,48.0 38.0,50.3 C 39.5,52.6 41.5,54.6 43.6,56.5 C 41.8,60.1 39.5,63.5 36.4,65.8 C 35.4,66.6 34.1,67.3 34.0,68.7 C 33.8,70.5 35.9,71.2 37.3,71.5 C 39.3,71.9 41.2,71.0 42.6,69.5 C 44.7,67.3 46.1,64.4 47.3,61.5 C 49.3,62.5 51.5,63.4 53.8,64.2 C 56.4,65.1 59.2,65.8 61.9,66.1 C 63.3,66.3 65.2,66.8 66.2,65.6 C 67.2,64.4 65.9,62.8 65.0,62.0 C 62.9,60.1 60.5,58.6 57.9,57.4 C 55.4,56.2 52.8,55.3 50.1,54.7 C 49.5,52.3 49.0,49.8 48.7,47.3 C 48.4,44.9 48.3,42.3 47.9,39.9 C 47.6,38.4 46.8,36.5 45.1,36.1 C 43.5,35.7 42.1,36.9 40.9,37.8 Z"
      fill="#000000"
    />
    <path
      d="M 34.0,38.5 C 31.0,40.0 27.5,41.2 24.5,43.0 C 23.5,43.6 22.1,44.5 22.5,45.9 C 22.8,47.1 24.4,47.0 25.4,46.5 C 28.1,45.1 30.7,43.5 33.3,42.0 C 34.5,41.3 35.7,40.1 35.1,38.8 C 34.8,38.1 34.4,38.3 34.0,38.5 Z"
      fill="#000000"
    />
    <path
      d="M 46.5,37.0 C 49.0,36.0 51.5,34.5 54.0,33.0 C 55.0,32.4 56.5,31.5 57.5,32.5 C 58.5,33.5 57.5,35.0 56.5,36.0 C 54.0,38.5 51.0,41.0 48.0,43.0 Z"
      fill="#000000"
    />
    <circle cx="70" cy="64" r="3.5" fill="#000000" />
  </g>
</svg>
